<?xml version="1.0" encoding="UTF-8"?>
<svg xmlns="http://www.w3.org/2000/svg" style="display: none;">
  <symbol 
    id="svg-icon--site-logo"
    class="svg-icon-site-logo"
    viewBox="0 0 512 512"
    preserveAspectRatio="xMidYMid meet"
  >
    <g class="svg-icon-site-logo__group">
      <path 
        class="svg-icon-site-logo__path"
        d="m477.85 344.28 34.15-17.08-34.15-64.18v-21.73c0-53.21-29.52-99.54-73.09-123.48 8.65 23.81 13.37 49.5 13.37 76.26 0 120.56-95.71 219.19-215.14 223.89l22.47 94.04h164.727l14.413-33.97h-32.14l-28.88-37.76 23.83-18.23 19.87 25.99h67.55c13.899 0 26.393-8.475 31.531-21.389 5.163-12.975 1.85-27.787-8.347-37.327l-.164-.153z"
      />
      <path 
        class="svg-icon-site-logo__path"
        d="m281.135 170.427-17.01-5.381 8.222-15.833c5.002-9.632 3.201-21.266-4.481-28.948-7.683-7.684-19.316-9.485-28.947-4.481l-15.833 8.221-5.381-17.008c-3.274-10.349-12.774-17.301-23.639-17.301s-20.364 6.952-23.639 17.301l-5.381 17.008-15.833-8.221c-9.632-5.002-21.266-3.2-28.948 4.482s-9.483 19.315-4.481 28.947l8.224 15.833-17.011 5.381c-10.348 3.274-17.301 12.774-17.301 23.639s6.953 20.364 17.301 23.639l17.011 5.381-8.224 15.833c-5.002 9.632-3.201 21.265 4.482 28.948 7.68 7.68 19.314 9.483 28.947 4.48l15.833-8.222 5.381 17.01c3.274 10.348 12.773 17.3 23.639 17.3s20.364-6.952 23.639-17.3l5.381-17.01 15.833 8.222c9.631 5.003 21.265 3.2 28.948-4.481 7.682-7.682 9.482-19.315 4.48-28.947l-8.222-15.833 17.01-5.381c10.348-3.274 17.3-12.773 17.3-23.639s-6.952-20.364-17.3-23.639zm-87.069 68.639c-24.813 0-45-20.187-45-45s20.187-45 45-45 45 20.187 45 45-20.187 45-45 45z"
      />
      <path 
        class="svg-icon-site-logo__path"
        d="m388.131 194.065c0-107.007-87.058-194.065-194.066-194.065s-194.065 87.058-194.065 194.065 87.058 194.065 194.065 194.065 194.066-87.057 194.066-194.065zm-84.022 45.582c3.544 17.632-1.788 36.19-15.028 49.433-13.243 13.242-31.804 18.572-49.434 15.029-9.961 14.974-26.854 24.326-45.581 24.326s-35.62-9.354-45.582-24.326c-17.629 3.543-36.188-1.789-49.432-15.028-13.242-13.244-18.574-31.802-15.029-49.434-14.974-9.961-24.327-26.854-24.327-45.581s9.354-35.62 24.327-45.581c-3.545-17.631 1.787-36.189 15.028-49.433 13.244-13.241 31.803-18.572 49.434-15.03 9.961-14.973 26.854-24.326 45.581-24.326s35.62 9.354 45.581 24.326c17.635-3.542 36.19 1.787 49.433 15.029 13.241 13.243 18.573 31.802 15.029 49.434 14.973 9.961 24.326 26.854 24.326 45.581s-9.352 35.62-24.326 45.581z"
      />
      <circle 
        class="svg-icon-site-logo__circle"
        cx="194.066" cy="194.066" r="15"
      />
    </g>
  </symbol>
</svg>
